<svg width="100" height="100" viewBox="0 0 100 100" fill="none" xmlns="http://www.w3.org/2000/svg">
  <!-- Background circle -->
  <circle cx="50" cy="50" r="50" fill="#128C7E"/>
  
  <!-- Face -->
  <circle cx="50" cy="45" r="25" fill="#FFDBB4"/>
  
  <!-- Hair -->
  <path d="M25 40C25 27 35 18 50 18C65 18 75 27 75 40C75 35 72 28 65 25C58 22 50 22 50 22C50 22 42 22 35 25C28 28 25 35 25 40Z" fill="#4A3728"/>
  
  <!-- Eyes -->
  <ellipse cx="40" cy="43" rx="3" ry="4" fill="#4A3728"/>
  <ellipse cx="60" cy="43" rx="3" ry="4" fill="#4A3728"/>
  
  <!-- Smile -->
  <path d="M40 55C40 55 45 60 50 60C55 60 60 55 60 55" stroke="#4A3728" stroke-width="2" stroke-linecap="round"/>
  
  <!-- Stethoscope hint -->
  <path d="M38 70C38 70 42 75 50 75C58 75 62 70 62 70" stroke="#25D366" stroke-width="3" stroke-linecap="round"/>
  
  <!-- Heart symbol -->
  <path d="M50 82C50 82 44 78 44 75C44 73 46 72 48 72C49 72 50 73 50 73C50 73 51 72 52 72C54 72 56 73 56 75C56 78 50 82 50 82Z" fill="#E74C3C"/>
</svg>
